{
	"asset":{
		"generator":"Khronos glTF Blender I/O v4.1.63",
		"version":"2.0"
	},
	"scene":0,
	"scenes":[
		{
			"name":"Scene",
			"nodes":[
				3
			]
		}
	],
	"nodes":[
		{
			"mesh":0,
			"name":"defaultMaterial"
		},
		{
			"children":[
				0
			],
			"name":"UtahTeapot_low"
		},
		{
			"children":[
				1
			],
			"name":"Collada visual scene group",
			"rotation":[
				0.70710688829422,
				0,
				0,
				0.7071066498756409
			]
		},
		{
			"children":[
				2
			],
			"name":"Sketchfab_model",
			"rotation":[
				-0.70710688829422,
				0,
				0,
				0.7071066498756409
			],
			"scale":[
				0.26474735140800476,
				0.26474738121032715,
				0.26474738121032715
			]
		}
	],
	"materials":[
		{
			"alphaMode":"BLEND",
			"doubleSided":true,
			"emissiveFactor":[
				1,
				1,
				1
			],
			"emissiveTexture":{
				"index":0
			},
			"name":"UtahTeapot",
			"normalTexture":{
				"index":1
			},
			"occlusionTexture":{
				"index":2
			},
			"pbrMetallicRoughness":{
				"baseColorTexture":{
					"index":3
				},
				"metallicRoughnessTexture":{
					"index":2
				}
			}
		}
	],
	"meshes":[
		{
			"name":"defaultMaterial",
			"primitives":[
				{
					"attributes":{
						"POSITION":0,
						"NORMAL":1,
						"TEXCOORD_0":2
					},
					"indices":3,
					"material":0
				}
			]
		}
	],
	"textures":[
		{
			"sampler":0,
			"source":0
		},
		{
			"sampler":0,
			"source":1
		},
		{
			"sampler":0,
			"source":2
		},
		{
			"sampler":0,
			"source":3
		}
	],
	"images":[
		{
			"mimeType":"image/jpeg",
			"name":"UtahTeapot_emissive.jpeg",
			"uri":"textures/UtahTeapot_emissive.jpeg"
		},
		{
			"mimeType":"image/png",
			"name":"UtahTeapot_normal.png",
			"uri":"textures/UtahTeapot_normal.png"
		},
		{
			"mimeType":"image/png",
			"name":"UtahTeapot_metallicRoughness.png",
			"uri":"textures/UtahTeapot_metallicRoughness.png"
		},
		{
			"mimeType":"image/png",
			"name":"UtahTeapot_baseColor.png",
			"uri":"textures/UtahTeapot_baseColor.png"
		}
	],
	"accessors":[
		{
			"bufferView":0,
			"componentType":5126,
			"count":4884,
			"max":[
				97.57830810546875,
				100,
				60.66376495361328
			],
			"min":[
				-97.57830810546875,
				0,
				-60.66376495361328
			],
			"type":"VEC3"
		},
		{
			"bufferView":1,
			"componentType":5126,
			"count":4884,
			"type":"VEC3"
		},
		{
			"bufferView":2,
			"componentType":5126,
			"count":4884,
			"type":"VEC2"
		},
		{
			"bufferView":3,
			"componentType":5123,
			"count":26652,
			"type":"SCALAR"
		}
	],
	"bufferViews":[
		{
			"buffer":0,
			"byteLength":58608,
			"byteOffset":0,
			"target":34962
		},
		{
			"buffer":0,
			"byteLength":58608,
			"byteOffset":58608,
			"target":34962
		},
		{
			"buffer":0,
			"byteLength":39072,
			"byteOffset":117216,
			"target":34962
		},
		{
			"buffer":0,
			"byteLength":53304,
			"byteOffset":156288,
			"target":34963
		}
	],
	"samplers":[
		{
			"magFilter":9729,
			"minFilter":9987
		}
	],
	"buffers":[
		{
			"byteLength":209592,
			"uri":"scene.bin"
		}
	]
}
